<svg width="40" height="40" viewBox="0 0 40 40" fill="none" xmlns="http://www.w3.org/2000/svg"><path d="M20 0C8.96842 0 0 8.96842 0 20C0 31.0316 8.96842 40 20 40C31.0316 40 40 31.0316 40 20C40 8.96842 31.0316 0 20 0ZM28.6737 16.4632L19.5789 27.2842C19.2 27.7473 18.6527 27.9999 18.0632 27.9999C17.4737 27.9999 16.9264 27.7473 16.5474 27.2842L11.3264 21.0526C10.6107 20.2105 10.7369 18.9894 11.579 18.2737C12.4211 17.558 13.6422 17.6842 14.3579 18.5263L18.0632 22.9474L25.6421 13.9368C26.3578 13.0947 27.5789 13.0106 28.421 13.6842C29.2631 14.4 29.3895 15.6211 28.6736 16.4632H28.6737Z" fill="#30A387"/></svg>