<svg enable-background="new 0 0 426.4 110.6" viewBox="0 0 426.4 110.6" xmlns="http://www.w3.org/2000/svg"><linearGradient id="a" gradientUnits="userSpaceOnUse" x1="42.31" x2="42.31" y1="112.9816" y2="41.3925"><stop offset=".2541" stop-color="#564699"/><stop offset=".8324" stop-color="#3268b0"/></linearGradient><linearGradient id="b" gradientUnits="userSpaceOnUse" x1="43.4805" x2="42.3238" y1="-35.0295" y2="41.3116"><stop offset=".07866384" stop-color="#564699"/><stop offset=".2318" stop-color="#674197"/><stop offset=".5383" stop-color="#963591"/><stop offset=".9662" stop-color="#e02188"/><stop offset="1" stop-color="#e61f88"/></linearGradient><path d="m133.4 29.9 16.7 48.2h-10.4l-3.5-10.4h-19.1l-3.6 10.4h-9.9l17.4-48.2zm.3 30-6.7-20.5-7.1 20.5z"/><path d="m163.5 44.4.3 4.8c3.1-5.4 8.7-5.5 10.3-5.5 8.7 0 14 6.5 14 16.8 0 9.5-4.9 18-14.7 18-6.1 0-8.5-3.2-9.4-4.3v16.8h-10.1v-46.6zm14.5 16.6c0-4-1-10.9-6.8-10.9-3.2 0-7.7 2.4-7.7 11.5 0 2 .1 10.5 7.3 10.5 4.7 0 7.2-4.5 7.2-11.1z"/><path d="m202.5 44.4.3 4.8c3.1-5.4 8.7-5.5 10.3-5.5 8.7 0 14 6.5 14 16.8 0 9.5-4.9 18-14.7 18-6.1 0-8.5-3.2-9.4-4.3v16.8h-10.1v-46.6zm14.6 16.6c0-4-1-10.9-6.8-10.9-3.2 0-7.7 2.4-7.7 11.5 0 2 .1 10.5 7.3 10.5 4.6 0 7.2-4.5 7.2-11.1z"/><path d="m240.9 62.7c0 2.3-.1 9.1 8.7 9.1 5.6 0 9.1-2.7 9.1-6.7 0-4.3-3-5-9.1-6.5-11.5-2.9-17.7-6.3-17.7-14.6 0-7.9 5.7-14.9 19.1-14.9 5 0 10.9 1.1 14.5 5.7 2.7 3.5 2.7 7.3 2.7 8.9h-9.9c-.1-1.7-.7-7.3-7.8-7.3-4.8 0-7.9 2.6-7.9 6.5 0 4.5 3.5 5.3 10.5 7 8.3 2 16.5 4.3 16.5 13.7 0 8.7-7.2 15.7-20.5 15.7-18.5 0-18.6-11.9-18.7-16.5h10.5z"/><path d="m292.9 56.4c-.1-1.2-.5-6.2-4.3-6.2-4.7 0-5.2 7.1-5.2 10.7 0 1.9.2 7.9 2.5 10.3.9 1 1.9 1.1 2.7 1.1 1.1 0 4.1-.5 4.5-6.5h9.7c-.1 2.6-.5 6.7-4.3 9.9-2.4 2.1-5.4 3.1-9.6 3.1-4.5 0-8.4-1-11.5-4.5-2.9-3.4-4.3-7.9-4.3-13.3 0-15.3 11.3-17.5 15.7-17.5 6.3 0 13.7 3.5 13.7 12.6h-9.6z"/><path d="m314.7 63.8c0 2.2 0 9 6.9 9 2.5 0 4.9-.9 5.9-4.7h9c-.1 1.6-.5 4.5-3.2 7.3-2.5 2.6-6.9 3.9-11.8 3.9-2.9 0-8.3-.5-11.9-4.2-3.1-3.2-4.3-7.7-4.3-13.1 0-5.5 1.3-12 7-15.9 2.6-1.7 5.8-2.8 9.5-2.8 4.8 0 10.5 1.9 13.6 8.1 2.3 4.6 2.1 9.5 2 12.3h-22.7zm12.6-6.2c0-1.5-.1-7.5-5.9-7.5-4.3 0-6.1 3.6-6.3 7.5z"/><path d="m342.3 50.4c0-.1 0-3.8-.2-6.1h9.5l.3 5.1c.9-1.5 3.6-5.9 10.9-5.9 6.6 0 9.4 4 10.3 6.3.7 2.1.9 3.8.9 10.1v18.2h-10.1v-20.9c0-1.4 0-2.6-.5-3.7-.7-1.5-2.3-2.9-4.8-2.9-2.1 0-4.1 1-5.1 2.6-.6.9-1.2 2.5-1.2 5.1v19.7h-9.9v-27.6z"/><path d="m380.9 30h10.5v8.6h-10.5zm.4 14.4h9.9v33.7h-9.9z"/><path d="m415.9 56.4c-.1-1.2-.5-6.2-4.3-6.2-4.7 0-5.2 7.1-5.2 10.7 0 1.9.2 7.9 2.5 10.3.9 1 1.9 1.1 2.7 1.1 1.1 0 4.1-.5 4.5-6.5h9.7c-.1 2.6-.5 6.7-4.3 9.9-2.4 2.1-5.4 3.1-9.6 3.1-4.5 0-8.4-1-11.5-4.5-2.9-3.4-4.3-7.9-4.3-13.3 0-15.3 11.3-17.5 15.7-17.5 6.3 0 13.7 3.5 13.7 12.6h-9.6z"/><path d="m62.7 41-11.9 12.3c3.1 3.2 6.6 6.7 9.4 9.5 2.7 2.7 2.7 7.1.1 9.8l-12.5 13c-2.7 2.8-7.3 2.9-10 .1l-12.8-13c-2.7-2.8-2.7-7.2.1-9.9l9.6-9.4-12.4-12.4c-6.3 6.2-12.9 12.7-17.9 17.7-5 4.9-5 12.9-.1 17.9l29.4 29.8c5 5.1 13.2 5 18.1-.1l28.7-29.8c4.8-4.9 4.7-12.8-.1-17.7" fill="url(#a)"/><path d="m8.1 55c14-13.9 34.7-34.3 34.7-34.3.7.7 20.4 20.6 33.9 34.3l3.8-4c4.8-4.9 4.7-12.8-.1-17.7-8.2-8.3-20.5-20.6-28.7-29-4.9-5-12.9-5-17.9-.1l-29.4 29c-5 4.9-5 12.9-.1 17.9z" fill="url(#b)"/></svg>