<svg width="200" height="200" viewBox="0 0 200 200" fill="none" xmlns="http://www.w3.org/2000/svg"><path d="M100 0C44.8 0 0 44.8 0 100C0 155.2 44.8 200 100 200C155.2 200 200 155.2 200 100C200 44.8 155.2 0 100 0ZM100 184C53.6 184 16 146.4 16 100C16 53.6 53.6 16 100 16C146.4 16 184 53.6 184 100C184 146.4 146.4 184 100 184Z" fill="#E7E9F0"/><path d="M140 92H108V60C108 55.6003 104.4 52 100 52C95.6003 52 92 55.6003 92 60V92H60C55.6003 92 52 95.6003 52 100C52 104.4 55.6003 108 60 108H92V140C92 144.4 95.6003 148 100 148C104.4 148 108 144.4 108 140V108H140C144.4 108 148 104.4 148 100C148 95.6003 144.4 92 140 92Z" fill="#E7E9F0"/></svg>