<svg width="200" height="195" viewBox="0 0 200 195" fill="none" xmlns="http://www.w3.org/2000/svg"><path fill-rule="evenodd" clip-rule="evenodd" d="M199.917 87.0331L193.885 42.2249H168.034L174.066 90.4817C175.79 107.716 201.642 104.269 199.917 87.0346V87.0331Z" fill="#E52388"/><path fill-rule="evenodd" clip-rule="evenodd" d="M164.587 87.8944L161.14 42.2232H135.289L138.736 89.617C139.598 106.852 165.448 105.128 164.587 87.8937V87.8944Z" fill="#626A92"/><path fill-rule="evenodd" clip-rule="evenodd" d="M129.257 88.7574V42.2249H103.406V88.7574C103.406 105.992 129.257 105.992 129.257 88.7574Z" fill="#E52388"/><path fill-rule="evenodd" clip-rule="evenodd" d="M0.861631 87.0331L6.89364 42.2249H32.7446L26.7126 90.4816C24.1277 107.716 -0.862657 104.269 0.861631 87.0346V87.0331Z" fill="#626A92"/><path fill-rule="evenodd" clip-rule="evenodd" d="M36.1917 87.8944L38.7767 42.2232H64.6277L62.0427 89.617C60.3194 106.852 34.4674 105.128 36.1917 87.8937V87.8944Z" fill="#E52388"/><path fill-rule="evenodd" clip-rule="evenodd" d="M71.5221 88.7574L70.6605 42.2249H96.5115L97.3731 88.7574C97.3731 105.992 71.5221 105.992 71.5221 88.7574Z" fill="#626A92"/><path fill-rule="evenodd" clip-rule="evenodd" d="M3.44708 187.853H193.885C196.47 187.853 197.332 189.576 197.332 191.3C197.332 193.023 196.471 194.747 193.885 194.747H3.44708C1.72379 194.747 0 193.024 0 191.3C0 189.577 1.72329 187.853 3.44708 187.853Z" fill="#626A92"/><path fill-rule="evenodd" clip-rule="evenodd" d="M6.89366 0H194.35V34.4275H6.89366V0Z" fill="#626A92"/><path fill-rule="evenodd" clip-rule="evenodd" d="M189.572 108.576V176.651C189.572 179.236 187.849 180.098 186.125 180.098H169.752V120.639H134.422V180.098H14.6443C12.921 180.098 11.1972 179.237 11.1972 176.651V108.576C18.9525 110.299 26.7078 107.714 31.0157 99.9589C38.771 112.023 58.591 112.885 66.3461 99.9589C73.2398 112.023 91.3358 112.885 99.9523 102.544C108.569 112.885 126.665 112.023 134.421 99.9589C141.315 112.885 161.997 112.023 168.89 99.9589C174.061 107.714 181.816 110.3 189.572 108.576ZM124.943 120.64H24.1234V165.448H124.943V120.64Z" fill="#626A92"/><path fill-rule="evenodd" clip-rule="evenodd" d="M137.875 152.524V158.556C137.875 161.141 142.183 161.141 142.183 158.556V152.524C142.183 149.939 137.875 149.939 137.875 152.524Z" fill="#626A92"/></svg>