<svg id="AppScenic_icn" data-name="AppScenic icn" xmlns="http://www.w3.org/2000/svg" xmlns:xlink="http://www.w3.org/1999/xlink" width="128" height="128" viewBox="0 0 128 128"><defs><style>.cls-1{fill:url(#linear-gradient);}.cls-2{fill:url(#linear-gradient-2);}</style><linearGradient id="linear-gradient" x1="65.18" y1="-26.96" x2="64.01" y2="49.91" gradientUnits="userSpaceOnUse"><stop offset="0.08" stop-color="#564699"/><stop offset="0.23" stop-color="#684197"/><stop offset="0.54" stop-color="#963591"/><stop offset="0.97" stop-color="#e02189"/><stop offset="1" stop-color="#e61f88"/></linearGradient><linearGradient id="linear-gradient-2" x1="64" y1="122.09" x2="64" y2="49.96" gradientUnits="userSpaceOnUse"><stop offset="0.25" stop-color="#564699"/><stop offset="0.83" stop-color="#3268b0"/></linearGradient></defs><path class="cls-1" d="M29.54,63.69,64.47,29.18C65.18,29.91,85,50,98.55,63.69l3.88-4a12.73,12.73,0,0,0-.11-17.79L73.42,12.62a12.74,12.74,0,0,0-18-.11L25.79,41.77a12.74,12.74,0,0,0-.11,18Z"/><path class="cls-2" d="M84.56,49.51,72.55,62,82,71.55A7.06,7.06,0,0,1,82,81.41L69.43,94.48a7.07,7.07,0,0,1-10.11.06L46.41,81.47a7.06,7.06,0,0,1,.06-10L56.1,62,43.84,49.56,25.78,67.4a12.74,12.74,0,0,0-.1,18l29.61,30a12.75,12.75,0,0,0,18.24-.11l28.9-30a12.73,12.73,0,0,0-.1-17.79Z"/></svg>