<svg width="20" height="20" xmlns="http://www.w3.org/2000/svg"><g><path fill="#fff" d="m13.713 7.381-2.17 2.244a159.38 159.38 0 0 0 1.714 1.733c.493.492.493 1.295.019 1.788l-2.28 2.371c-.493.51-1.332.529-1.825.018l-2.335-2.371a1.272 1.272 0 0 1 .018-1.806l1.752-1.715-2.262-2.262a632.232 632.232 0 0 0-3.266 3.229 2.307 2.307 0 0 0-.018 3.265l5.363 5.436c.912.93 2.408.912 3.302-.018l5.235-5.436c.876-.894.858-2.335-.018-3.229"/><path fill="#fff" d="M3.753 9.935c2.554-2.536 6.33-6.257 6.33-6.257.128.128 3.722 3.758 6.184 6.257l.693-.73c.876-.894.858-2.335-.018-3.228-1.496-1.515-3.74-3.758-5.235-5.29A2.307 2.307 0 0 0 8.44.667l-5.363 5.29a2.307 2.307 0 0 0-.018 3.266z"/></g></svg>